<svg width="62" height="62" viewBox="0 0 62 62" fill="none" xmlns="http://www.w3.org/2000/svg">
<g id="Frame 132">
<path id="Vector 57 (Stroke)" fill-rule="evenodd" clip-rule="evenodd" d="M8.67995 7.44H54.87V53.63H52.39V11.5733C45.1016 18.5239 35.1473 28.109 26.6705 36.4708C22.0088 41.0692 17.8009 45.2909 14.7305 48.4986C13.1937 50.1041 11.9526 51.4445 11.085 52.446C10.6497 52.9486 10.322 53.3501 10.1015 53.6486C9.99073 53.7985 9.91919 53.9061 9.8775 53.9765C9.86382 53.9996 9.85577 54.0147 9.85182 54.0225C9.85872 54.0069 9.87608 53.9636 9.89043 53.899L7.46948 53.361C7.52945 53.0912 7.65867 52.8562 7.7437 52.7126C7.84431 52.5428 7.96938 52.361 8.10681 52.175C8.38275 51.8014 8.75799 51.3446 9.2105 50.8222C10.1185 49.7741 11.3928 48.399 12.9389 46.7838C16.0342 43.55 20.2622 39.3086 24.9289 34.7052C33.3613 26.3873 43.2489 16.865 50.5302 9.92H8.67995V7.44Z" fill="black"/>
</g>
</svg>
