<svg width="76" height="23" viewBox="0 0 76 23" fill="none" xmlns="http://www.w3.org/2000/svg">
<g id="Union">
<path fill-rule="evenodd" clip-rule="evenodd" d="M38.2835 22.8072C44.5815 22.8072 49.687 17.7016 49.687 11.4036C49.687 5.10556 44.5815 0 38.2835 0C31.9854 0 26.8799 5.10556 26.8799 11.4036C26.8799 17.7016 31.9854 22.8072 38.2835 22.8072ZM38.2834 12.5192C38.8995 12.5192 39.399 12.0198 39.399 11.4037C39.399 10.7876 38.8995 10.2881 38.2834 10.2881C37.6673 10.2881 37.1679 10.7876 37.1679 11.4037C37.1679 12.0198 37.6673 12.5192 38.2834 12.5192Z" fill="#F2F1EF"/>
<path d="M31.3566 6.51633H36.0875L29.0498 20.2006H23.1265L18.0437 10.8758L12.961 20.2006H7.03764L0 6.51633H4.73086L9.95044 16.975L15.4242 6.51633H20.2723L26.0979 16.9946L31.3566 6.51633Z" fill="#F2F1EF"/>
<path d="M71.2691 6.51633H76L68.9624 20.2006H63.039L57.9563 10.8758L52.8735 20.2006H46.9502L39.9125 6.51633H44.6434L49.863 16.975L55.3367 6.51633H60.1849L66.0105 16.9946L71.2691 6.51633Z" fill="#F2F1EF"/>
</g>
</svg>
